# xmcd
#
# Track frame offsets: 
#        150
#        18910
#        37890
#        47975
#
# Disc length: 925 seconds
#
# Revision: 3
# Processed by: cddbd v1.4PL0 Copyright (c) Steve Scherf et al.
# Submitted via: ExactAudioCopy v0.90b3
#
DISCID=27039b04
DTITLE=Steve Earle and The V-Roys - Johnny Too Bad
DYEAR=1997
DGENRE=Country
TTITLE0=Johnny Too Bad (Sunshine Mix)
TTITLE1=Johnny Too Bad (Hillbilly Mix)
TTITLE2=Straight Highway (The V-Roys)
TTITLE3=Ellis Unit One (Steve Earle and The Fairfield Four)
EXTD=
EXTT0=Steve Earle and The V-Roys w/RNT and C. Fax
EXTT1=Steve Earle and The V-Roys
EXTT2=The V-Roys
EXTT3=Steve Earle and The Fairfield Four
PLAYORDER=
